<?xml version="1.0" encoding="UTF-8"?>
<svg width="420px" height="141px" viewBox="0 0 420 141" version="1.1" xmlns="http://www.w3.org/2000/svg" xmlns:xlink="http://www.w3.org/1999/xlink">
    <!-- Generator: Sketch 47.1 (45422) - http://www.bohemiancoding.com/sketch -->
    <title>Bitnami-Logo-White</title>
    <desc>Created with Sketch.</desc>
    <defs></defs>
    <g id="Symbols" stroke="none" stroke-width="1" fill="none" fill-rule="evenodd">
        <g id="Logo-/-Text-/-White" fill="#FFFFFE">
            <g id="Bitnami-Logo-White">
                <polygon id="Fill-1" points="198.527316 50.8788599 208.503563 50.8788599 208.503563 40.9026128 198.527316 40.9026128"></polygon>
                <polygon id="Fill-2" points="198.527316 105.750594 208.503563 105.750594 208.503563 56.8669834 198.527316 56.8669834"></polygon>
                <path d="M181.000534,80.4843723 C181.000534,85.5153608 180.321338,89.4787281 178.97904,92.2642033 C177.654216,95.0282624 175.0901,96.3720162 171.140921,96.3720162 C168.423675,96.3720162 166.31251,95.6853302 164.868126,94.3315518 C163.406727,92.9435987 162.421272,91.1077276 161.94073,88.8740617 C161.440415,86.5633885 161.187498,83.7410044 161.187498,80.4843723 C161.187498,77.2318412 161.440415,74.420393 161.94073,72.1274908 C162.421272,69.8929135 163.405807,68.073902 164.865367,66.7201236 C166.316189,65.3750029 168.426894,64.6928736 171.140921,64.6928736 C173.861845,64.6928736 175.889317,65.344929 177.33784,66.6882271 C178.783604,68.0301582 179.763082,69.8496254 180.247302,72.0942273 C180.747618,74.4094571 181.000534,77.2327525 181.000534,80.4843723 Z M189.504974,65.3631556 C188.672648,63.1285783 187.460947,61.2138774 185.906659,59.6750993 C184.562062,58.3099294 182.792564,57.2122343 180.64967,56.4116323 C178.536206,55.6224219 176.213511,55.221893 173.744124,55.221893 C170.965718,55.221893 168.493112,55.6506731 166.396203,56.4950188 C164.508524,57.2559781 162.75926,58.5035867 161.187498,60.2100491 L161.187498,35.9144893 L150.64133,41.4257479 L150.64133,105.18684 L160.992982,105.18684 L160.992982,100.523573 C162.685225,102.388151 164.426211,103.679047 166.295956,104.457777 C168.355618,105.313971 170.829143,105.748219 173.647555,105.748219 C176.150971,105.748219 178.499878,105.347234 180.632196,104.557568 C182.819695,103.746941 184.544588,102.690256 185.90344,101.330554 C187.460947,99.802712 188.672648,97.8870996 189.503595,95.6379411 C190.352935,93.3919723 190.913031,91.0425676 191.171006,88.6548872 C191.418404,86.2494358 191.543943,83.4949457 191.543943,80.4679684 C191.543943,77.4414467 191.418404,74.6869566 191.171006,72.2801383 C190.909812,69.8956475 190.349256,67.567659 189.504974,65.3631556 L189.504974,65.3631556 Z" id="Fill-3"></path>
                <path d="M226.969485,42.9002375 L216.484561,48.3542313 L216.484561,92.0037695 C216.484561,94.4746172 217.003068,96.7677839 218.026367,98.8178795 C219.046008,100.891425 220.612505,102.583904 222.680135,103.848415 C224.747308,105.110221 227.286808,105.750594 230.227306,105.750594 L236.437055,105.750594 L236.437055,96.8381348 L232.062202,96.8381348 C228.63566,96.8381348 226.969485,95.1059709 226.969485,91.5433323 L226.969485,65.8161211 L236.437055,65.8161211 L236.437055,57.7429114 L226.969485,57.7429114 L226.969485,42.9002375" id="Fill-4"></path>
                <path d="M266.166488,55.8669834 C263.691216,55.8669834 261.283859,56.3487233 259.00871,57.2971914 C256.96764,58.1433069 255.154765,59.3547076 253.609475,60.9031899 L253.609475,56.4729112 L243.420428,56.4729112 L243.420428,105.748219 L253.801447,105.748219 L253.801447,75.8102884 C253.801447,72.3566817 254.716488,69.7173474 256.517591,67.9659794 C258.344049,66.2114271 260.69481,65.3220961 263.50694,65.3220961 C265.339737,65.3220961 266.927135,65.6864716 268.359687,66.4384226 C269.760998,67.1585305 270.882046,68.3167079 271.694762,69.8833862 C272.523776,71.4514292 272.944849,73.4457142 272.944849,75.8102884 L272.944849,105.748219 L283.325416,105.748219 L283.325416,74.3232178 C283.325416,68.3044256 281.642484,63.6212221 278.326879,60.4041637 C275.265727,57.3936304 271.174533,55.8669834 266.166488,55.8669834" id="Fill-5"></path>
                <polygon id="Fill-6" points="410.023753 105.750594 420 105.750594 420 56.8669834 410.023753 56.8669834"></polygon>
                <polygon id="Fill-7" points="410.023753 50.8788599 420 50.8788599 420 40.9026128 410.023753 40.9026128"></polygon>
                <path d="M386.254424,55.8669834 C380.035822,55.8669834 374.900439,58.2038087 370.983622,62.8133183 C367.83194,58.2038087 363.162292,55.8669834 357.096352,55.8669834 C354.525698,55.8669834 352.068972,56.3596409 349.79453,57.3308541 C347.768904,58.1910715 345.977968,59.3910997 344.462281,60.9018252 L344.462281,56.4729112 L334.204276,56.4729112 L334.204276,105.748219 L344.653679,105.748219 L344.653679,75.8102884 C344.653679,72.3571366 345.57421,69.7178023 347.388387,67.9659794 C349.226261,66.2114271 351.592757,65.3220961 354.42362,65.3220961 C356.270152,65.3220961 357.8665,65.6864716 359.305172,66.4384226 C360.713313,67.1567109 361.841648,68.3144334 362.661012,69.8838411 C363.496326,71.4468802 363.920136,73.4411652 363.920136,75.8102884 L363.920136,105.748219 L374.369538,105.748219 L374.369538,75.3458347 C374.369538,72.1769959 375.320603,69.6900534 377.196756,67.9546069 C379.114834,66.1827683 381.379707,65.3220961 384.123074,65.3220961 C386.917025,65.3220961 389.219266,66.189137 390.962352,67.9004737 C392.705894,69.609081 393.589057,72.2707055 393.589057,75.8102884 L393.589057,105.748219 L404.038005,105.748219 L404.038005,74.3232178 C404.038005,68.4358919 402.268943,63.7522335 398.780492,60.402799 C395.652963,57.3936304 391.438568,55.8669834 386.254424,55.8669834" id="Fill-8"></path>
                <path d="M317.831255,85.1075418 L317.831255,88.1988873 C317.831255,94.7473036 312.283436,97.6794034 306.784531,97.6794034 C300.939596,97.6794034 298.100239,95.7243703 298.100239,91.7036418 C298.100239,89.5844147 298.911872,87.6707674 300.218547,86.7089955 C301.657474,85.6460081 303.801146,85.1075418 306.589776,85.1075418 L317.831255,85.1075418 Z M307.930419,56.5 C303.796164,56.5 300.355329,57.0236214 297.703481,58.0560192 C295.030346,59.0956146 292.539285,60.9615781 290.297783,63.6017276 L290.101668,63.8329487 L296.965674,70.2401131 L297.182623,69.9675061 C298.516473,68.2873293 299.927772,67.1055824 301.375758,66.4537547 C302.82782,65.801927 304.9108,65.4703901 307.566272,65.4703901 C311.157929,65.4703901 313.801624,66.1739501 315.425343,67.5585778 C317.021887,68.9472542 317.831255,71.149253 317.831255,74.101596 L317.831255,76.5577582 L305.337451,76.5577582 C301.735377,76.5577582 298.619286,77.1524553 296.076139,78.3265548 C293.527557,79.5024537 291.573206,81.1830804 290.270155,83.3212011 C289.045005,85.3131216 288.313539,88.3225951 288.313539,91.3712052 C288.313539,95.7059266 289.629725,99.2601642 292.230846,101.94035 C293.738617,103.419445 295.600572,104.540463 297.765531,105.272363 C299.936831,106.007863 302.526175,106.381235 305.463363,106.381235 C308.444937,106.381235 310.949133,105.990318 312.905295,105.219731 C314.672137,104.523369 316.392328,103.40595 318.024199,101.894915 L318.024199,105.827024 L328.218527,105.827024 L328.218527,73.3584495 C328.218527,62.1716654 321.392567,56.5 307.930419,56.5 L307.930419,56.5 Z" id="Fill-9"></path>
                <g id="Group-13">
                    <polyline id="Fill-10" points="78.1566952 79.2443552 78.1566952 61.6285492 62.8471682 52.8224613 47.5376412 61.6285492 47.5376412 79.2443552 62.8467128 88.0540733 78.1566952 79.2443552"></polyline>
                    <path d="M123.932249,35.5778296 C122.745835,33.4306452 120.974639,31.6523663 118.645988,30.3133254 C102.402814,20.9695338 86.1587297,11.6266498 69.9155561,2.28240441 C65.3985283,-0.314908283 60.0986037,-0.203283733 55.7938098,2.27287549 C53.0347702,3.86012214 50.2748198,5.4482763 47.5139585,7.03597671 L47.5139585,37.3710825 L62.8467128,28.5513818 L99.3236022,49.5327134 L99.3236022,91.499914 L62.8467128,112.481699 L26.3670908,91.499914 C26.3670908,91.4790411 26.3670908,91.4572607 26.3670908,91.4368416 C26.3670908,67.3567944 26.3670908,43.0176512 26.3670908,18.939419 L6.93221212,30.1204781 C2.41290716,32.7200596 0,35.2933231 0,40.3903905 C0,73.1168027 0,65.6878713 0,98.4138297 C0,101.064686 0.709571414,103.451001 1.8563627,105.469318 C3.14069607,107.728581 4.97428689,109.525918 7.00417123,110.693438 C23.1799401,119.997752 39.3547981,129.303882 55.5323887,138.607743 C60.2798678,141.339822 65.3889642,141.352073 70.1100279,138.636783 C86.3249644,129.308873 102.541723,119.980963 118.755748,110.653961 C123.296914,108.042582 125.691604,103.897499 125.691604,98.6266424 C125.691604,80.0388861 125.691604,61.4529448 125.691604,42.8638271 C125.691604,40.1199505 125.089971,37.6732856 123.932249,35.5778296" id="Fill-12"></path>
                </g>
            </g>
        </g>
    </g>
</svg>